<svg width="116" height="34" viewBox="0 0 116 34" fill="none" xmlns="http://www.w3.org/2000/svg">
<path d="M58 0L62.0413 11.7467L75.119 11.7467L64.5389 19.0066L68.5801 30.7533L58 23.4934L47.4199 30.7533L51.4611 19.0066L40.881 11.7467L53.9587 11.7467L58 0Z" fill="black"/>
<path d="M101 3L104.368 12.6738H115.266L106.449 18.6525L109.817 28.3262L101 22.3475L92.1832 28.3262L95.5509 18.6525L86.7342 12.6738H97.6323L101 3Z" fill="black"/>
<path d="M15 3L18.3677 12.6738H29.2658L20.4491 18.6525L23.8168 28.3262L15 22.3475L6.18322 28.3262L9.55093 18.6525L0.734152 12.6738H11.6323L15 3Z" fill="black"/>
</svg>
